<svg xmlns="http://www.w3.org/2000/svg" xmlns:svg="http://www.w3.org/2000/svg" id="svg2" width="10" height="16" version="1.0"><title id="title3212">Map icon for shelter</title><metadata id="metadata10"/><path style="fill:none;stroke:#734a08;stroke-width:2.00000024;stroke-linecap:square;stroke-linejoin:round;stroke-miterlimit:4;stroke-dasharray:none;stroke-opacity:1" id="path3967" d="m 1.0000001,15 0,-13.9999999 7.9999998,0"/><g id="g5998" transform="matrix(0.51952076,0,0,0.51952076,-2.2762576,-0.64351186)"><g id="g6002"><g id="g6006"><path id="path3992" d="m 15.995596,11.102306 c 0.552265,2e-5 1.029299,-0.200867 1.431102,-0.60266 0.401743,-0.401752 0.602629,-0.8787864 0.602661,-1.4311028 -3.2e-5,-0.5767852 -0.200918,-1.0597554 -0.602661,-1.4489128 -0.401803,-0.38911 -0.878837,-0.583677 -1.431102,-0.583701 -0.552324,2.4e-5 -1.029166,0.194591 -1.430529,0.583701 -0.401418,0.3891574 -0.602112,0.8721276 -0.602086,1.4489128 -2.6e-5,0.5523164 0.200668,1.0293508 0.602086,1.4311028 0.401363,0.401793 0.878205,0.60268 1.430529,0.60266 l 0,0 z" style="fill:#734a08;fill-opacity:1;stroke:none"/><path id="flowRoot3192" d="m 18.669362,11.515954 -5.384301,0 c -0.727738,1.8e-5 -1.348973,0.257399 -1.863709,0.772139 -0.514784,0.514779 -0.772164,1.148654 -0.772141,1.901627 l 0,6.249512 c -2.3e-5,0.602862 0.276124,0.904288 0.828443,0.904278 0.526991,1e-5 0.7905,-0.301416 0.790525,-0.904278 l 0,-6.098991 0.978964,0 0,16.566552 c -2.7e-5,0.75299 0.376469,1.129485 1.129485,1.129486 0.752962,-10e-7 1.129457,-0.376496 1.129485,-1.129486 l 0,-9.601201 0.978965,0 0,9.601201 c -3e-5,0.75299 0.376465,1.129485 1.129485,1.129486 0.778237,-10e-7 1.167371,-0.376496 1.167403,-1.129486 l 0,-16.566552 0.941046,0 0,6.098991 c -3.2e-5,0.627375 0.263476,0.941056 0.790525,0.941047 0.527749,9e-6 0.79164,-0.313672 0.791674,-0.941047 l 0,-6.212744 c -3.4e-5,-0.727694 -0.244775,-1.361377 -0.734223,-1.901051 -0.489515,-0.539636 -1.123389,-0.809465 -1.901626,-0.809483 l 0,0 z" style="fill:#734a08;fill-opacity:1;stroke:none"/></g></g></g></svg>